<?xml version="1.0" encoding="UTF-8" standalone="no"?>
<!-- Created with Inkscape (http://www.inkscape.org/) -->

<svg
   width="40.0px"
   height="40.0px"
   viewBox="0 0 40.0 40.0"
   version="1.1"
   id="SVGRoot"
   sodipodi:docname="pluginIcon_dark.svg"
   inkscape:version="1.1 (c68e22c387, 2021-05-23)"
   xmlns:inkscape="http://www.inkscape.org/namespaces/inkscape"
   xmlns:sodipodi="http://sodipodi.sourceforge.net/DTD/sodipodi-0.dtd"
   xmlns="http://www.w3.org/2000/svg"
   xmlns:svg="http://www.w3.org/2000/svg">
  <sodipodi:namedview
     id="namedview1192"
     pagecolor="#505050"
     bordercolor="#ffffff"
     borderopacity="1"
     inkscape:pageshadow="0"
     inkscape:pageopacity="0"
     inkscape:pagecheckerboard="1"
     inkscape:document-units="px"
     showgrid="true"
     inkscape:zoom="17.597674"
     inkscape:cx="21.96313"
     inkscape:cy="13.979121"
     inkscape:window-width="1276"
     inkscape:window-height="1418"
     inkscape:window-x="3200"
     inkscape:window-y="20"
     inkscape:window-maximized="1"
     inkscape:current-layer="layer1">
    <inkscape:grid
       type="xygrid"
       id="grid1198" />
  </sodipodi:namedview>
  <defs
     id="defs1187" />
  <g
     inkscape:label="Layer 1"
     inkscape:groupmode="layer"
     id="layer1">
    <g
       transform="matrix(1.0159686,0,0,1.0172515,-4.523044,18.089757)"
       fill-rule="evenodd"
       id="g16"
       style="display:inline">
      <g
         fill="#232323"
         id="g6">
        <path
           d="m 42.166,-0.22 c 0.835,-1.953 0.82,-3.865 0.3,-5.387 C 41.833,-7.48 39.234,-9.93 38.4,-8.96 38.292,-8.825 36.797,-9 36.555,-8.677 c -0.35,0.47 -0.148,0.62 0.027,0.78 0.525,0.47 1.872,0.983 2.464,2.572 0.256,0.673 0.848,2.25 -0.175,3.192 -1.172,1.064 -2.478,1.306 -7.838,-3.676 -5.7,-5.32 -13.386,-3.15 -15.918,-2.316 -2.545,0.848 -3.703,1.683 -2.707,3.65 1.36,2.666 0.916,1.845 2.235,4.04 2.1,3.5 6.693,-1.616 6.693,-1.616 -3.42,5.158 -6.356,3.905 -7.487,2.114 -1,-1.63 -1.805,-3.5 -1.805,-3.5 C 3.382,-0.3 5.725,13.5 5.725,13.5 h 4.3 c 1.104,-5.077 5.023,-4.888 5.696,0 h 3.286 c 2.9,-9.925 9.117,0 9.117,0 h 3.7 c 0,-5.292 -0.552,-7.285 2.155,-7.65 4.633,-0.633 6.787,-2.8 8.188,-6.06 z"
           id="path2" />
        <path
           d="m 42.826,-3.815 a 13.45,13.45 0 0 0 -2.316,0.404 c -0.027,0.027 -0.04,0.054 -0.067,0.094 -0.337,0.377 -0.754,0.754 -1.24,0.956 a 1.23,1.23 0 0 1 -0.189,0.094 c -0.04,0.04 -0.08,0.094 -0.135,0.135 -1.172,1.064 -2.586,1.306 -7.838,-3.676 -5.656,-5.36 -13.372,-3.138 -15.918,-2.303 -2.546,0.835 -3.703,1.67 -2.707,3.636 1.36,2.666 0.916,1.845 2.235,4.04 2.1,3.5 6.693,-1.616 6.693,-1.616 -3.42,5.158 -6.356,3.905 -7.487,2.114 -1,-1.63 -1.805,-3.5 -1.805,-3.5 C 3.382,-0.3 5.725,13.5 5.725,13.5 h 4.3 c 1.104,-5.077 5.023,-4.888 5.696,0 h 3.286 c 2.9,-9.925 9.117,0 9.117,0 h 3.7 c 0,-5.292 -0.552,-7.285 2.155,-7.65 4.62,-0.633 6.774,-2.788 8.174,-6.06 0.552,-1.252 0.74,-2.478 0.673,-3.596 z"
           id="path4" />
      </g>
      <g
         transform="matrix(0.134666,0,0,0.134666,3.786295,-12.554531)"
         id="g12">
        <path
           d="m 173.7,75.2 34.6,11.5 c -1.1,5.3 -11,15.5 -23.8,11.2 -16.8,-5.6 -10.8,-22.7 -10.8,-22.7 z"
           fill="#ffffff"
           id="path8" />
        <ellipse
           transform="matrix(0.9944,-0.1056,0.1056,0.9944,-8.0067,20.6062)"
           cx="190.60001"
           cy="85.900002"
           rx="8.8999996"
           ry="8.6000004"
           fill="#232323"
           id="ellipse10" />
      </g>
      <path
         d="m 36.6,-7.895 c 0.148,0.135 0.337,0.256 0.525,0.377 0.902,-0.74 2.06,-0.727 3.03,-1.13 -0.875,-0.808 -2.25,-1.427 -2.693,-0.902 -0.108,0.135 -0.646,0.552 -0.9,0.875 -0.35,0.47 -0.148,0.62 0.027,0.78 z"
         fill="#232323"
         id="path14" />
    </g>
    <path
       d="m 11.247,2.0419998 c 2.164,-0.067 4.772,-0.275 6.284,1.614 2.506,2.9 0.625,7.0610002 1.517,10.4450002 a 3.394,3.394 0 0 0 3.721,1.809 3.21,3.21 0 0 1 4.191,-1.73 3.075,3.075 0 0 1 0.262,5.437 3.239,3.239 0 0 1 -4.479,-1.605 41.57,41.57 0 0 0 -5.854,0.142 c -1.787,0.514 -2.24,2.541 -2.053,4.169 0.089,2.173 0.226,4.759 -1.605,6.315 -2,1.876 -4.941,1.229 -7.42,1.339 -0.173,-0.705 -0.346,-1.406 -0.523,-2.107 2.39,-0.235 5.792,0.9 7.176,-1.743 0.812,-2.643 -0.466,-5.681 1.158,-8.147 -1.947,0.04 -3.9,0.013 -5.845,0.027 C 7.61,17.3 7.442,16.6 7.255,15.9 c 3.437,0 6.874,-0.018 10.311,0.013 -1.109,-1.53 -0.408,-3.756 -1.836,-5.078 a 4.191,4.191 0 0 0 -3.06,-0.82 c -2.963,0.013 -5.925,0 -8.888,0.013 C 3.618,9.323 3.449,8.618 3.263,7.9169998 c 3.446,0.018 6.9,-0.04 10.343,0.022 A 7.743,7.743 0 0 1 16.777,8.826 C 16.684,7.5089998 16.95,5.8859998 15.806,4.9259998 c -1.06,-1.087 -2.683,-0.75 -4.04,-0.776 -0.16,-0.707 -0.328,-1.412 -0.519,-2.108 z"
       style="fill:#8b8b8b"
       id="path1825" />
  </g>
</svg>
