<?xml version="1.0" encoding="UTF-8" standalone="no"?>
<!-- Created with Inkscape (http://www.inkscape.org/) -->

<svg
   width="13.0px"
   height="13.0px"
   viewBox="0 0 13.0 13.0"
   version="1.1"
   id="SVGRoot"
   sodipodi:docname="toolWindow_dark.svg"
   inkscape:version="1.1 (c68e22c387, 2021-05-23)"
   xmlns:inkscape="http://www.inkscape.org/namespaces/inkscape"
   xmlns:sodipodi="http://sodipodi.sourceforge.net/DTD/sodipodi-0.dtd"
   xmlns="http://www.w3.org/2000/svg"
   xmlns:svg="http://www.w3.org/2000/svg">
  <sodipodi:namedview
     id="namedview21"
     pagecolor="#505050"
     bordercolor="#ffffff"
     borderopacity="1"
     inkscape:pageshadow="0"
     inkscape:pageopacity="0"
     inkscape:pagecheckerboard="1"
     inkscape:document-units="px"
     showgrid="true"
     inkscape:zoom="49.773737"
     inkscape:cx="6.4391387"
     inkscape:cy="7.3733664"
     inkscape:window-width="1276"
     inkscape:window-height="1418"
     inkscape:window-x="3200"
     inkscape:window-y="20"
     inkscape:window-maximized="1"
     inkscape:current-layer="layer1">
    <inkscape:grid
       type="xygrid"
       id="grid27" />
  </sodipodi:namedview>
  <defs
     id="defs16" />
  <g
     inkscape:label="Layer 1"
     inkscape:groupmode="layer"
     id="layer1">
    <g
       transform="matrix(0.29409617,0,0,0.29446754,-0.99288077,6.7148635)"
       fill-rule="evenodd"
       id="g16"
       style="display:inline">
      <g
         fill="#b4b4b4"
         id="g6">
        <path
           d="m 42.166,-0.22 c 0.835,-1.953 0.82,-3.865 0.3,-5.387 C 41.833,-7.48 39.234,-9.93 38.4,-8.96 38.292,-8.825 36.797,-9 36.555,-8.677 c -0.35,0.47 -0.148,0.62 0.027,0.78 0.525,0.47 1.872,0.983 2.464,2.572 0.256,0.673 0.848,2.25 -0.175,3.192 -1.172,1.064 -2.478,1.306 -7.838,-3.676 -5.7,-5.32 -13.386,-3.15 -15.918,-2.316 -2.545,0.848 -3.703,1.683 -2.707,3.65 1.36,2.666 0.916,1.845 2.235,4.04 2.1,3.5 6.693,-1.616 6.693,-1.616 -3.42,5.158 -6.356,3.905 -7.487,2.114 -1,-1.63 -1.805,-3.5 -1.805,-3.5 C 3.382,-0.3 5.725,13.5 5.725,13.5 h 4.3 c 1.104,-5.077 5.023,-4.888 5.696,0 h 3.286 c 2.9,-9.925 9.117,0 9.117,0 h 3.7 c 0,-5.292 -0.552,-7.285 2.155,-7.65 4.633,-0.633 6.787,-2.8 8.188,-6.06 z"
           id="path2" />
        <path
           d="m 42.826,-3.815 a 13.45,13.45 0 0 0 -2.316,0.404 c -0.027,0.027 -0.04,0.054 -0.067,0.094 -0.337,0.377 -0.754,0.754 -1.24,0.956 a 1.23,1.23 0 0 1 -0.189,0.094 c -0.04,0.04 -0.08,0.094 -0.135,0.135 -1.172,1.064 -2.586,1.306 -7.838,-3.676 -5.656,-5.36 -13.372,-3.138 -15.918,-2.303 -2.546,0.835 -3.703,1.67 -2.707,3.636 1.36,2.666 0.916,1.845 2.235,4.04 2.1,3.5 6.693,-1.616 6.693,-1.616 -3.42,5.158 -6.356,3.905 -7.487,2.114 -1,-1.63 -1.805,-3.5 -1.805,-3.5 C 3.382,-0.3 5.725,13.5 5.725,13.5 h 4.3 c 1.104,-5.077 5.023,-4.888 5.696,0 h 3.286 c 2.9,-9.925 9.117,0 9.117,0 h 3.7 c 0,-5.292 -0.552,-7.285 2.155,-7.65 4.62,-0.633 6.774,-2.788 8.174,-6.06 0.552,-1.252 0.74,-2.478 0.673,-3.596 z"
           id="path4" />
      </g>
      <g
         transform="matrix(0.134666,0,0,0.134666,3.786295,-12.554531)"
         id="g12">
        <path
           d="m 173.7,75.2 34.6,11.5 c -1.1,5.3 -11,15.5 -23.8,11.2 -16.8,-5.6 -10.8,-22.7 -10.8,-22.7 z"
           fill="#ffffff"
           id="path8" />
        <ellipse
           transform="matrix(0.9944,-0.1056,0.1056,0.9944,-8.0067,20.6062)"
           cx="190.60001"
           cy="85.900002"
           rx="8.8999996"
           ry="8.6000004"
           fill="#b4b4b4"
           id="ellipse10" />
      </g>
      <path
         d="m 36.6,-7.895 c 0.148,0.135 0.337,0.256 0.525,0.377 0.902,-0.74 2.06,-0.727 3.03,-1.13 -0.875,-0.808 -2.25,-1.427 -2.693,-0.902 -0.108,0.135 -0.646,0.552 -0.9,0.875 -0.35,0.47 -0.148,0.62 0.027,0.78 z"
         fill="#b4b4b4"
         id="path14" />
    </g>
    <path
       d="M 3.572132,2.0694601 C 4.198553,2.0500651 4.9535004,1.9898551 5.3911846,2.5366706 6.1166057,3.3761443 5.5721057,4.5806443 5.8303162,5.5602233 A 0.98247369,0.98247369 0 0 0 6.9074478,6.0838812 0.92921053,0.92921053 0 0 1 8.120632,5.5830917 0.89013158,0.89013158 0 0 1 8.1964741,7.1569601 0.93760527,0.93760527 0 0 1 6.8999215,6.6923549 12.033421,12.033421 0 0 0 5.2053425,6.7334601 C 4.688053,6.8822496 4.5569214,7.4690128 4.611053,7.9402759 4.6368162,8.5693022 4.6764741,9.3178812 4.1464478,9.7683022 3.5675004,10.311355 2.7161583,10.124065 1.998553,10.155907 1.9484741,9.9518286 1.8983951,9.7489075 1.8471583,9.5459864 2.5390004,9.4779601 3.5237899,9.8065128 3.9244214,9.0414338 4.1594741,8.2763549 3.7895267,7.3969338 4.259632,6.6830917 3.6960267,6.6946706 3.1306846,6.6868549 2.5676583,6.6909075 2.5193162,6.4862496 2.4706846,6.283618 2.416553,6.0809864 c 0.9949211,0 1.9898421,-0.00521 2.9847632,0.00376 C 5.0802899,5.6418549 5.2832109,4.9974864 4.8698425,4.6148022 A 1.2131842,1.2131842 0 0 0 3.984053,4.3774338 c -0.8577105,0.00376 -1.7151316,0 -2.5728421,0.00376 -0.047474,-0.204079 -0.096395,-0.4081579 -0.1502368,-0.611079 0.9975263,0.00521 1.9973684,-0.011579 2.9940263,0.00637 a 2.2413947,2.2413947 0 0 1 0.917921,0.2567632 C 5.1460004,3.6520127 5.2230004,3.1821969 4.8918425,2.9043022 4.5850004,2.5896443 4.1151846,2.6871969 3.7223688,2.6796706 3.676053,2.4750127 3.6274214,2.2709338 3.572132,2.0694601 Z"
       style="fill:#8b8b8b;stroke-width:0.289474"
       id="path1825" />
  </g>
</svg>
